<?xml version="1.0" encoding="utf-8"?>
<!-- Generator: Adobe Illustrator 16.2.1, SVG Export Plug-In . SVG Version: 6.00 Build 0)  -->
<!DOCTYPE svg PUBLIC "-//W3C//DTD SVG 1.1//EN" "http://www.w3.org/Graphics/SVG/1.1/DTD/svg11.dtd">
<svg version="1.1" id="Layer_1" xmlns="http://www.w3.org/2000/svg" xmlns:xlink="http://www.w3.org/1999/xlink" x="0px" y="0px"
	 width="452.381px" height="50px" viewBox="0 0 452.381 50" enable-background="new 0 0 452.381 50" xml:space="preserve">
<g>
	<g>
		<path fill="#FFFFFF" d="M65.605,7.898v35.416h-7.961V7.898h-7.835V0.893h23.568v7.006H65.605z"/>
		<path fill="#FFFFFF" d="M92.747,43.314V25.926h-8.854v17.388h-7.897V0.893h7.897v17.964h8.854V0.893h7.962v42.422H92.747z"/>
		<path fill="#FFFFFF" d="M105.642,43.314V0.893h20.255v6.815h-12.358v10.511h8.536v6.243h-8.536v11.783h12.358v7.07H105.642z"/>
		<path fill="#FFFFFF" d="M153.411,7.898v35.416h-7.962V7.898h-7.835V0.893h23.568v7.006H153.411z"/>
		<path fill="#FFFFFF" d="M164.593,43.314V0.893h20.256v6.815h-12.357v10.511h8.535v6.243h-8.535v11.783h12.357v7.07H164.593z"/>
		<path fill="#FFFFFF" d="M205.364,43.314l-4.969-14.649l-5.413,14.649h-7.708L196,21.912l-8.217-21.019h8.281l4.649,14.649
			l5.097-14.649h7.771l-8.472,20.383l8.535,22.039H205.364z"/>
		<path fill="#FFFFFF" d="M233.029,43.314l-1.402-8.343h-7.516l-1.529,8.343h-7.389l8.536-42.422h8.854l8.472,42.422H233.029z
			 M228.06,12.358l-2.867,16.372h5.414L228.06,12.358z"/>
		<path fill="#FFFFFF" d="M253.853,44.271c-7.261,0-11.784-4.33-11.784-10.956v-2.93h7.261v2.484c0,3.12,1.465,4.842,4.332,4.842
			c2.803,0,4.204-1.658,4.204-4.269c0-3.376-2.166-5.669-6.371-8.791c-4.331-3.122-9.043-7.325-9.043-13.247
			C242.451,5.287,246.4,0,254.043,0c6.689,0,11.148,4.587,11.148,10.893v2.739h-7.199v-2.548c0-2.611-1.335-4.522-4.012-4.522
			c-2.292,0-3.823,1.465-3.823,3.822c0,3.567,2.102,5.414,6.815,8.854c5.034,3.757,8.601,7.58,8.601,13.314
			C265.573,39.366,260.86,44.271,253.853,44.271z"/>
		<path fill="#FFFFFF" d="M291.833,7.898v35.416h-7.962V7.898h-7.835V0.893h23.57v7.006H291.833z"/>
		<path fill="#FFFFFF" d="M322.518,43.57c-3.122,0-4.332-2.549-4.332-6.243v-7.962c0-1.975-1.02-3.631-3.248-3.631h-4.14v17.58
			H302.9V0.893h13.058c5.795,0,9.681,3.313,9.681,9.235v5.99c0,3.183-1.465,5.541-4.776,6.559c3.311,0.893,4.904,3.694,4.904,6.434
			v7.771c0,1.976,0.573,3.312,1.53,4.331v2.357H322.518z M317.93,10.447c0-1.91-0.828-3.058-2.802-3.058h-4.33v12.486h4.013
			c2.038,0,3.119-1.083,3.119-3.376V10.447z"/>
		<path fill="#FFFFFF" d="M331.97,43.314V0.893h7.9v42.422H331.97z"/>
		<path fill="#FFFFFF" d="M359.611,43.314h-13.375V0.893h13.25c5.796,0,9.363,3.122,9.363,8.982v4.585
			c0,3.63-1.402,6.371-5.033,7.133c3.824,1.021,5.223,3.632,5.223,7.2v5.541C369.04,40.258,365.408,43.314,359.611,43.314z
			 M361.269,10.447c0-1.91-0.829-3.058-2.804-3.058h-4.267v11.658h3.948c2.039,0,3.123-1.083,3.123-3.313V10.447z M361.396,28.22
			c0-2.229-1.083-3.376-3.121-3.376h-4.077v11.975h4.458c1.975,0,2.739-1.084,2.739-3.058V28.22z"/>
		<path fill="#FFFFFF" d="M385.681,44.271c-6.88,0-11.976-4.395-11.976-10.766V0.893h8.025v32.612c0,2.484,1.401,3.888,3.95,3.888
			c2.611,0,4.012-1.403,4.012-3.888V0.893h7.707v32.612C397.4,39.876,392.559,44.271,385.681,44.271z"/>
		<path fill="#FFFFFF" d="M420.685,43.314l-8.218-18.089l-2.994-6.751v24.84h-7.263V0.893h6.817l7.833,18.408l2.804,6.752V0.893
			h7.135v42.422H420.685z"/>
		<path fill="#FFFFFF" d="M432.126,43.314V0.893h20.255v6.815h-12.356v10.511h8.535v6.243h-8.535v11.783h12.356v7.07H432.126z"/>
	</g>
	<path fill="#FFC200" d="M0,0.461v49.368l9.928-6.206h33.235V0.461H0z M30.911,34.933l-9.455-6.221l-9.453,6.221l2.995-10.912
		l-8.837-7.068l11.303-0.525L21.456,5.84l3.991,10.588l11.303,0.525l-8.837,7.068L30.911,34.933z"/>
</g>
</svg>
